:SAMPLES-PER-SECOND 30
:FULLY-SPECIFIED
:DEGREES
447
root  79.4479 38.2721 -1.05406 -115.134 -84.4961 115.908
RightUpLeg  11.0711 -13.7363 -10.5029
RightLeg  9.30643 -8.11275 0.74501
RightFoot  -18.3197 0.359531 7.9138
RightToes  -1.74624e-010 0 -3.6325e-017
Spine  4.2193 2.19851 6.474
Spine1  8.21191 4.96069 -9.59785
HEad  -7.49932 -14.9739 -0.958875
LeftShoulder1  -0.411482 4.54812 -33.2592
LeftArm  -5.92784 18.352 -39.9047
LeftForeArm  36.7587 -8.98557 -7.43043
LeftHand  -0.0369369 8.02218 0.291659
RightShoulder  -0.905782 -6.01815 29.4408
RightArm  19.9632 14.2939 49.5921
RightForeArm  8.62608 29.0534 5.83539
RightHand  -0.294224 6.10391 -3.31951
LeftUpLeg  -18.9716 1.06512 -6.08891
LeftLeg  8.40575 9.02729 -0.637976
LeftFoot  2.28453 -0.370962 2.97711
LeftToes  -3.96543e-010 8.93632e-011 -2.58531e-011
448
root  78.4975 38.0856 -0.947193 -111.503 -83.6307 111.776
RightUpLeg  11.941 -15.1072 -12.4145
RightLeg  11.9837 -5.90283 -0.457074
RightFoot  -19.3998 0.584024 10.1256
RightToes  -1.74624e-010 0 -3.6325e-017
Spine  4.76027 2.16559 4.74966
Spine1  7.76072 4.92841 -10.0017
HEad  -7.53647 -14.8296 -0.947674
LeftShoulder1  -0.45678 4.65337 -33.5821
LeftArm  -5.75754 18.8526 -38.9813
LeftForeArm  36.9546 -8.04115 -7.601
LeftHand  -0.053789 8.11519 -0.400547
RightShoulder  -0.940964 -6.08109 29.936
RightArm  21.2101 12.8906 49.7393
RightForeArm  9.87274 29.4703 5.86658
RightHand  -0.140681 6.59326 -1.69852
LeftUpLeg  -18.8398 2.05351 -7.68126
LeftLeg  11.63 7.73271 -0.252852
LeftFoot  3.32379 -0.685715 5.21305
LeftToes  -3.96543e-010 8.93632e-011 -2.58531e-011
449
root  77.5429 37.9362 -0.80033 -104.864 -82.951 104.308
RightUpLeg  12.0463 -14.9295 -14.076
RightLeg  17.1161 -4.72853 -1.81356
RightFoot  -19.7219 0.904655 14.0921
RightToes  -1.74624e-010 0 -3.6325e-017
Spine  5.2348 2.05327 3.16284
Spine1  8.0996 4.77162 -10.2124
HEad  -7.85069 -14.9366 -0.917499
LeftShoulder1  -0.468479 4.67642 -33.7831
LeftArm  -6.4465 17.7938 -38.8676
LeftForeArm  37.9275 -5.98016 -7.45122
LeftHand  -0.0510493 7.39102 -0.560073
RightShoulder  -0.987457 -6.17247 30.4265
RightArm  22.272 11.2947 49.7318
RightForeArm  9.7026 28.7218 5.69647
RightHand  -0.105741 6.00391 -1.41486
LeftUpLeg  -18.4689 1.99929 -9.76168
LeftLeg  15.6186 7.27703 1.45747
LeftFoot  1.25382 -0.699897 6.23575
LeftToes  -3.96543e-010 8.93632e-011 -2.58531e-011
450
root  76.6551 37.8032 -0.622757 -103.101 -82.5772 102.071
RightUpLeg  9.94603 -11.9601 -14.5038
RightLeg  24.8134 -5.88202 -3.18854
RightFoot  -18.524 1.08971 19.7241
RightToes  -1.74624e-010 0 -3.6325e-017
Spine  5.7674 2.12774 2.34749
Spine1  7.81384 4.77905 -11.0648
HEad  -7.6609 -15.3297 -1.31201
LeftShoulder1  -0.396873 4.50415 -33.5223
LeftArm  -6.82615 16.7723 -39.351
LeftForeArm  39.5025 -4.83934 -7.2186
LeftHand  -0.0476567 7.1897 -0.465472
RightShoulder  -1.04162 -6.27407 31.0447
RightArm  24.8786 9.14595 49.3957
RightForeArm  8.13318 26.9944 5.34908
RightHand  -0.146106 5.45691 -1.86992
LeftUpLeg  -18.019 1.07087 -10.7772
LeftLeg  18.7334 7.92048 2.76352
LeftFoot  -1.35239 -0.520137 6.05906
LeftToes  -3.96543e-010 8.93632e-011 -2.58531e-011
451
root  75.7752 37.8072 -0.469983 -106.714 -82.0978 105.314
RightUpLeg  5.83907 -7.88428 -14.6645
RightLeg  34.6646 -5.75418 -4.53693
RightFoot  -13.2208 0.340083 21.929
RightToes  -1.74624e-010 0 -3.6325e-017
Spine  5.95765 2.385 0.16982
Spine1  7.92182 4.43101 -9.66455
HEad  -7.68709 -15.0619 -2.57775
LeftShoulder1  -0.507415 4.74915 -34.5484
LeftArm  -6.7864 15.28 -39.352
LeftForeArm  39.1674 -4.41538 -7.22767
LeftHand  -0.0646815 7.6469 -1.10571
RightShoulder  -0.921581 -6.00353 30.2614
RightArm  28.8943 7.94882 50.3704
RightForeArm  5.93773 23.3205 4.88495
RightHand  -0.0856614 5.03355 -1.2657
LeftUpLeg  -16.4926 3.58255 -11.1667
LeftLeg  19.4896 6.48378 1.59388
LeftFoot  -3.5965 -0.449174 6.95838
LeftToes  -3.96543e-010 8.93632e-011 -2.58531e-011
452
root  74.8332 37.98 -0.329213 -109.686 -82.0176 107.951
RightUpLeg  0.357458 -4.0163 -14.2088
RightLeg  45.1311 -4.43028 -4.97637
RightFoot  -3.09632 -0.931548 13.4266
RightToes  -1.74624e-010 0 -3.6325e-017
Spine  5.97066 2.0261 -1.82006
Spine1  7.8262 3.41193 -7.43874
HEad  -7.82524 -12.6795 -3.58149
LeftShoulder1  -0.657479 5.09021 -35.3037
LeftArm  -5.74309 14.292 -39.3957
LeftForeArm  37.7724 -5.98851 -7.85257
LeftHand  -0.0669689 7.95758 -1.30422
RightShoulder  -0.756033 -5.6268 28.9723
RightArm  30.9219 7.03473 52.2268
RightForeArm  6.76236 18.6976 5.77324
RightHand  -0.175794 4.99488 -2.23986
LeftUpLeg  -13.9457 7.17173 -10.7162
LeftLeg  18.5099 3.97792 -0.829193
LeftFoot  -5.17448 -0.397396 7.92302
LeftToes  -3.96543e-010 8.93632e-011 -2.58531e-011
453
root  73.9538 38.0474 -0.208899 -108.445 -82.0975 106.627
RightUpLeg  -5.04685 -1.87316 -14.1345
RightLeg  52.837 -0.584263 -1.1626
RightFoot  3.56842 -0.829869 6.16313
RightToes  -1.74624e-010 0 -3.6325e-017
Spine  5.78332 1.08913 -2.83392
Spine1  8.09952 2.28125 -7.27573
HEad  -8.54959 -10.835 -3.55664
LeftShoulder1  -0.808668 5.47194 -34.8857
LeftArm  -3.88542 12.6651 -39.7049
LeftForeArm  35.1826 -8.03314 -8.54924
LeftHand  -0.0945499 10.72 -0.73593
RightShoulder  -0.605652 -5.22064 28.5399
RightArm  27.3347 6.07272 53.4819
RightForeArm  12.1496 14.418 7.74556
RightHand  -0.310765 5.29257 -3.68931
LeftUpLeg  -12.2038 7.99491 -10.5417
LeftLeg  18.4179 3.07459 -1.60103
LeftFoot  -7.01323 -0.24994 7.67397
LeftToes  -3.96543e-010 8.93632e-011 -2.58531e-011
454
root  73.0428 38.0799 -0.133171 -111.648 -82.2083 109.196
RightUpLeg  -8.74596 1.07647 -13.5696
RightLeg  56.9713 3.43059 5.18009
RightFoot  0.467107 -0.922316 8.93987
RightToes  -1.74624e-010 0 -3.6325e-017
Spine  6.42052 1.22848 -4.84815
Spine1  7.93217 1.64947 -5.23425
HEad  -9.05409 -9.90914 -3.95333
LeftShoulder1  -0.896828 5.63997 -35.7593
LeftArm  -1.7005 9.35542 -39.3451
LeftForeArm  34.7514 -8.61999 -9.14247
LeftHand  -0.0495043 7.46522 -0.24564
RightShoulder  -0.605307 -5.22724 28.3733
RightArm  23.7963 3.76136 52.7573
RightForeArm  17.1771 12.0013 8.43068
RightHand  -0.240912 4.61176 -3.09521
LeftUpLeg  -9.91734 8.12331 -9.79205
LeftLeg  18.5978 3.32431 -2.22382
LeftFoot  -9.03525 -0.0912903 7.35065
LeftToes  -3.96543e-010 8.93632e-011 -2.58531e-011
455
root  72.1519 38.1331 -0.0521709 -105.101 -83.2347 102.691
RightUpLeg  -12.572 1.61737 -12.4785
RightLeg  58.0357 4.89868 7.96023
RightFoot  -1.16635 -0.987802 10.9499
RightToes  -1.74624e-010 0 -3.6325e-017
Spine  6.98083 0.628798 -5.51538
Spine1  6.99631 0.667678 -4.25333
HEad  -8.90782 -8.71785 -3.51478
LeftShoulder1  -1.02958 5.97112 -35.4714
LeftArm  -1.72374 5.48687 -39.9521
LeftForeArm  35.2076 -8.03119 -9.38412
LeftHand  -0.0217501 5.90298 1.21903
RightShoulder  -0.801235 -5.72643 29.3801
RightArm  21.6855 1.53501 50.9474
RightForeArm  19.0805 10.3499 8.73666
RightHand  -0.197306 5.14301 -2.47588
LeftUpLeg  -8.33594 9.22378 -8.79434
LeftLeg  18.7374 1.37169 -3.23329
LeftFoot  -10.712 0.0195626 7.96773
LeftToes  -3.96543e-010 8.93632e-011 -2.58531e-011
456
root  71.2699 38.2072 0.041303 -99.14 -84.0345 96.8991
RightUpLeg  -16.3582 1.68013 -11.3404
RightLeg  56.3342 4.0005 6.06153
RightFoot  -2.65588 -0.845186 10.8472
RightToes  -1.74624e-010 0 -3.6325e-017
Spine  7.47248 -0.0621029 -5.16902
Spine1  5.73561 0.118006 -4.69132
HEad  -8.54954 -7.74813 -2.01914
LeftShoulder1  -0.764946 5.42659 -33.6616
LeftArm  -3.44084 2.96592 -41.749
LeftForeArm  35.1327 -8.26064 -8.75481
LeftHand  -0.0199869 7.02032 1.22441
RightShoulder  -0.962527 -6.06438 31.0297
RightArm  20.0341 -0.842786 48.6865
RightForeArm  19.7265 9.31082 8.7071
RightHand  -0.135538 4.34096 -1.89392
LeftUpLeg  -6.70144 9.09814 -7.92442
LeftLeg  18.3009 0.4904 -3.80861
LeftFoot  -11.8911 0.108935 7.74911
LeftToes  -3.96543e-010 8.93632e-011 -2.58531e-011
457
root  70.3782 38.2876 0.167776 -99.7309 -84.5274 97.3765
RightUpLeg  -19.2906 2.24342 -10.3033
RightLeg  51.7218 2.22411 2.69483
RightFoot  -3.63251 -0.701298 10.0167
RightToes  -1.74624e-010 0 -3.6325e-017
Spine  9.29462 0.121948 -5.72933
Spine1  2.67339 -0.0771508 -3.14746
HEad  -8.0414 -8.78049 -2.67986
LeftShoulder1  -0.453072 4.63287 -33.9623
LeftArm  -4.47311 0.730767 -42.0114
LeftForeArm  34.0856 -8.64654 -8.25002
LeftHand  -0.0368157 6.76241 0.0471632
RightShoulder  -1.00473 -6.16169 31.232
RightArm  19.2985 -4.45565 45.9961
RightForeArm  19.6467 9.50005 8.31442
RightHand  -0.120408 4.17395 -1.68642
LeftUpLeg  -4.52817 8.46339 -7.11588
LeftLeg  17.3347 0.741162 -4.26369
LeftFoot  -12.6287 0.162671 7.67948
LeftToes  -3.96543e-010 8.93632e-011 -2.58531e-011
458
root  69.4092 38.3709 0.290811 -93.0865 -85.1548 90.3112
RightUpLeg  -20.3753 2.0514 -9.12307
RightLeg  44.1687 0.502191 0.228744
RightFoot  -4.51297 -0.590805 9.37412
RightToes  -1.74624e-010 0 -3.6325e-017
Spine  9.45912 -0.44864 -6.32238
Spine1  3.15874 -0.951702 -1.33234
HEad  -8.17126 -8.38162 -2.66991
LeftShoulder1  -0.549549 4.86444 -34.231
LeftArm  -3.9334 -2.72189 -42.5093
LeftForeArm  30.85 -9.83706 -8.05971
LeftHand  -0.00467564 6.789 2.40287
RightShoulder  -1.1514 -6.57087 31.0101
RightArm  18.9137 -5.30821 44.8715
RightForeArm  19.8684 8.70797 8.44636
RightHand  -0.242244 5.06428 -2.95389
LeftUpLeg  -1.6708 7.6459 -6.36907
LeftLeg  15.8216 0.794654 -4.50768
LeftFoot  -13.4224 0.218222 7.57768
LeftToes  -3.96543e-010 8.93632e-011 -2.58531e-011
